<?xml version="1.0" encoding="UTF-8" standalone="no"?>
<!-- Created with Inkscape (http://www.inkscape.org/) -->

<svg
   width="793.70081"
   height="1122.5197"
   viewBox="0 0 210 296.99999"
   version="1.1"
   id="svg5"
   xml:space="preserve"
   inkscape:version="1.2.1 (9c6d41e410, 2022-07-14)"
   sodipodi:docname="project-icons.svg"
   xmlns:inkscape="http://www.inkscape.org/namespaces/inkscape"
   xmlns:sodipodi="http://sodipodi.sourceforge.net/DTD/sodipodi-0.dtd"
   xmlns="http://www.w3.org/2000/svg"
   xmlns:svg="http://www.w3.org/2000/svg"><sodipodi:namedview
     id="namedview7"
     pagecolor="#ffffff"
     bordercolor="#000000"
     borderopacity="0.25"
     inkscape:showpageshadow="2"
     inkscape:pageopacity="0.0"
     inkscape:pagecheckerboard="0"
     inkscape:deskcolor="#d1d1d1"
     inkscape:document-units="px"
     showgrid="false"
     inkscape:zoom="0.33071229"
     inkscape:cx="-81.64196"
     inkscape:cy="371.92449"
     inkscape:window-width="1366"
     inkscape:window-height="705"
     inkscape:window-x="-8"
     inkscape:window-y="-8"
     inkscape:window-maximized="1"
     inkscape:current-layer="layer1" /><defs
     id="defs2" /><g
     inkscape:label="Camada 1"
     inkscape:groupmode="layer"
     id="layer1"><g
       id="g1818"
       inkscape:export-filename="secretaria.png"
       inkscape:export-xdpi="96"
       inkscape:export-ydpi="96"
       transform="translate(-2.4001224,112.80575)"><rect
         style="fill:none;stroke:none;stroke-width:1.5;stroke-linecap:round;stroke-linejoin:round;paint-order:stroke markers fill"
         id="rect333"
         width="115.40572"
         height="115.40572"
         x="18.817057"
         y="51.975475" /><g
         id="g1811"><path
           style="fill:#ff6600;fill-opacity:1;stroke:#000000;stroke-width:4.23333;stroke-dasharray:none"
           d="m 23.086059,155.67406 c -0.139732,-0.13973 -0.254058,-8.25115 -0.254058,-18.0254 0,-13.31403 0.114698,-17.88603 0.457304,-18.22864 0.632189,-0.63218 9.504714,-0.63218 10.136903,0 0.342344,0.34235 0.457304,4.83711 0.457304,17.8799 0,9.58243 -0.104092,17.69387 -0.231315,18.0254 -0.194796,0.50763 -1.027077,0.6028 -5.271698,0.6028 -2.772211,0 -5.154709,-0.11432 -5.29444,-0.25406 z"
           id="path181"
           sodipodi:nodetypes="ssssssss" /><path
           style="fill:#fdc275;fill-opacity:1;stroke:#000000;stroke-width:4.23333;stroke-dasharray:none"
           d="m 53.977647,155.91839 c -8.164003,-0.50275 -17.104364,-2.18615 -19.340145,-3.64161 l -0.857445,-0.55818 v -14.65534 -14.65534 l 1.999081,-1.14172 c 6.989425,-3.99183 16.461333,-2.71276 26.772958,3.61538 3.450057,2.11726 5.939273,2.82944 10.860968,3.1074 4.354261,0.24591 6.207352,0.88535 7.564013,2.61006 2.000986,2.54384 2.075588,6.50075 0.167087,8.86209 -2.274469,2.81415 -2.766261,2.93911 -11.541966,2.9328 -8.777629,-0.006 -12.127003,-0.51515 -16.334237,-2.48151 -1.333518,-0.62326 -2.491068,-1.1332 -2.572335,-1.1332 -0.432762,0 1.913055,1.59829 3.067909,2.11357 3.111611,1.38836 4.90596,2.11738 15.351937,2.12792 6.982687,0.007 7.690508,0.11669 10.584789,-2.04876 1.756161,-1.31394 3.057117,-3.48353 3.058706,-5.89759 l 2.851345,-1.4398 3.523779,-0.68271 c 5.405422,-1.04727 12.170439,-3.47406 17.431999,-6.25335 3.98651,-2.10576 5.07852,-2.52082 6.68388,-2.54044 4.45418,-0.0544 7.53156,4.22458 6.27245,8.72165 -0.77173,2.75634 -5.93214,6.88777 -14.26002,11.41658 -8.187255,4.45235 -22.256411,9.597 -29.635749,10.83688 -5.203147,0.87424 -14.643394,1.21664 -21.649081,0.78522 z"
           id="path340"
           sodipodi:nodetypes="cscccssssscsssssccsscssscc" /><path
           style="fill:#000000;fill-opacity:1;stroke-width:0.381087"
           d="m 56.391373,110.8357 c -3.466504,-3.16818 -3.721002,-3.93029 -3.871736,-11.59421 -0.07111,-3.615559 0.01349,-6.572904 0.188001,-6.571886 0.174511,0.0013 6.303164,2.058894 13.619228,4.57304 7.316062,2.514152 13.80389,4.571186 14.41739,4.571186 0.6135,0 7.131831,-2.057873 14.485184,-4.573044 7.35335,-2.515176 13.53897,-4.573039 13.74584,-4.573039 0.24116,0 0.29806,2.307065 0.15858,6.429746 -0.19926,5.889837 -0.29862,6.589787 -1.18331,8.335647 -10.653753,13.09435 -38.462088,14.90346 -51.559177,3.40256 z m 59.325857,0.17933 c -1.85526,-0.99498 -3.16634,-3.55129 -2.93353,-5.71969 0.33362,-3.10732 2.60167,-5.14548 5.76014,-5.17627 2.32433,-0.0227 3.62854,0.70534 5.07738,2.83413 1.65085,2.4256 0.80954,6.17976 -1.77124,7.90384 -1.61947,1.08186 -4.28218,1.15047 -6.13275,0.15799 z m 1.13971,-18.918916 c 0,-6.658787 -10e-4,-6.669028 -0.85745,-6.679717 -3.04887,-0.03804 -35.797478,-4.146526 -36.286424,-4.552315 -0.789882,-0.655545 -0.738542,-2.186858 0.08815,-2.629291 0.836642,-0.447758 39.213524,3.943465 39.973114,4.57387 0.39845,0.330684 0.51239,2.152049 0.51239,8.190856 v 7.765612 h -1.71489 -1.71489 z M 54.656099,89.291566 C 40.881408,84.546139 29.428897,80.477832 29.206075,80.250884 28.983254,80.023935 28.89439,79.595212 29.008602,79.298167 c 0.122719,-0.319175 10.756515,-4.145293 25.99775,-9.354178 l 25.790094,-8.814097 12.218678,4.178359 c 41.931056,14.338953 39.275826,13.367583 39.275826,14.368346 0,0.912253 -1.11252,1.407151 -8.26983,3.678793 -0.50681,0.16086 -0.68571,0.0154 -0.68571,-0.557514 0,-1.322009 -2.4242,-3.387643 -4.2747,-3.642414 -8.82267,-1.214691 -38.48004,-4.398418 -39.387212,-4.228229 -1.34032,0.251445 -2.9719,1.800089 -3.57327,3.391633 -0.845273,2.237039 0.727361,5.120672 3.236073,5.933765 0.619776,0.200874 7.557702,1.089847 15.41761,1.975495 7.859919,0.885642 14.424359,1.724365 14.587639,1.863821 0.36204,0.309206 -27.805415,9.940753 -28.878383,9.87464 C 80.043971,97.940777 68.430791,94.037 54.656099,89.291566 Z"
           id="path342"
           sodipodi:nodetypes="cscsssssccsscssssssssscccssssscssssssssssss" /></g></g><g
       id="g1829"
       transform="matrix(0.82926816,0,0,0.82926816,23.79354,177.03404)"
       inkscape:export-filename="financeiro.png"
       inkscape:export-xdpi="96"
       inkscape:export-ydpi="96"><rect
         style="fill:none;fill-opacity:1;stroke:none;stroke-width:4.23333;stroke-linecap:round;stroke-linejoin:round;stroke-dasharray:none;paint-order:stroke markers fill"
         id="rect1820"
         width="139.16571"
         height="139.16571"
         x="-15.274285"
         y="-186.12" /><g
         id="g356"
         transform="matrix(1.0179628,0,0,1.0179628,-1.4787005,-109.0673)"><path
           style="fill:#fdc275;stroke-width:0.264583"
           d="M -3.9624499,28.049065 -7.7711573,14.886045 -7.845892,0.07532975 C -7.8872019,-8.111365 -7.8132953,-15.238628 -7.6806436,-15.860592 -7.52953,-16.569115 -2.064,-26.310604 7.0784654,-42.166493 19.373451,-63.489834 21.755664,-67.462644 22.629477,-68.100882 c 1.365329,-0.997243 1.872586,-0.951733 2.658271,0.238494 1.560716,2.364309 1.789769,5.789943 0.564039,8.435557 -1.143558,2.468248 -9.717868,16.891086 -10.596488,17.824337 -0.479507,0.509323 -1.018254,1.402292 -1.197216,1.984375 -0.178961,0.582084 -1.681173,3.39139 -3.33825,6.242905 l -3.012866,5.184571 V -5.7924033 16.605837 h 4.365625 4.365625 v -3.041949 -3.041949 l 0.808317,-0.331488 C 17.716776,9.9976064 22.395728,5.3794369 28.433501,-0.85118812 34.141759,-6.7417706 39.134798,-11.742395 39.529149,-11.963688 c 0.960662,-0.539083 1.455042,-0.203125 2.364171,1.606574 1.285401,2.5587008 1.249423,5.3036972 -0.107175,8.177535 C 41.38269,-1.3248928 38.436595,1.8136025 31.344703,8.9437552 25.911032,14.406745 21.4653,18.983383 21.4653,19.114058 c 0,0.130677 1.937707,2.209395 4.306016,4.619373 5.951895,6.056616 6.5419,7.303931 6.5419,13.830077 v 3.648578 H 16.079738 -0.15374234 Z"
           id="path364"
           sodipodi:nodetypes="ccssssssssscccccccssssssssscccc" /><path
           style="fill:#f4a725;stroke-width:0.264583"
           d="M -0.49702677,40.881356 C -0.63735911,40.553935 -2.4244131,34.404026 -4.4682581,27.214895 l -3.7160817,-13.071152 0.0743,-15.2392632 0.0743,-15.2392668 0.6102085,-1.143137 c 2.6945163,-5.047787 28.6105853,-49.582798 29.2447013,-50.255042 1.223669,-1.297245 2.768111,-1.941441 4.676434,-1.950569 4.327308,-0.02069 7.600637,3.903983 6.658879,7.983907 -0.200535,0.86877 -2.119862,4.457216 -5.619379,10.506207 -2.923148,5.052728 -5.454922,9.275891 -5.626163,9.384801 -0.171241,0.108913 -1.640218,0.199848 -3.264392,0.202076 l -2.953041,0.004 -0.68498,0.814051 -0.684977,0.814049 v 24.074177 c 0,17.7953528 0.08028,24.2249021 0.3078,24.6520931 0.641784,1.2049944 1.863776,1.5673729 3.032453,0.8992711 C 17.970975,9.4743528 22.75792,4.6267763 28.299459,-1.1212963 39.448823,-12.686199 39.86084,-13.027546 42.670677,-13.027546 c 4.735791,0 7.894886,4.2950713 6.444012,8.7612139 -0.43134,1.3277717 -1.16703,2.1320309 -10.757405,11.7600195 C 29.345499,16.540815 28.043215,17.94965 27.905042,18.801111 c -0.156536,0.964615 -0.119722,1.011465 4.457361,5.672515 3.838381,3.908801 4.768191,5.010436 5.52415,6.545008 0.906293,1.839736 0.909214,1.857751 0.997866,6.151563 l 0.08891,4.306424 H 19.365725 -0.24187743 Z M 32.313216,37.563508 c 0,-6.526146 -0.590005,-7.773461 -6.5419,-13.830077 -2.368309,-2.409978 -4.306016,-4.488696 -4.306016,-4.619373 0,-0.130675 4.445732,-4.707313 9.879403,-10.1703028 7.091892,-7.1301527 10.037987,-10.268648 10.441442,-11.1233342 1.356598,-2.8738378 1.392576,-5.6188342 0.107175,-8.177535 -0.909129,-1.809699 -1.403509,-2.145657 -2.364171,-1.606574 -0.394351,0.221293 -5.38739,5.2219174 -11.095648,11.11249988 C 22.395728,5.3794369 17.716776,9.9976064 17.246534,10.190451 l -0.808317,0.331488 v 3.041949 3.041949 H 12.072592 7.706967 V -5.7924033 -28.190643 l 3.012866,-5.184571 c 1.657077,-2.851515 3.159289,-5.660821 3.33825,-6.242905 0.178962,-0.582083 0.717709,-1.475052 1.197216,-1.984375 0.87862,-0.933251 9.45293,-15.356089 10.596488,-17.824337 1.22573,-2.645614 0.996677,-6.071248 -0.564039,-8.435557 -0.785685,-1.190227 -1.292942,-1.235737 -2.658271,-0.238494 -0.873813,0.638238 -3.256026,4.611048 -15.5510116,25.934389 C -2.064,-26.310604 -7.52953,-16.569115 -7.6806436,-15.860592 -7.8132953,-15.238628 -7.8872019,-8.111365 -7.845892,0.07532975 l 0.074735,14.81071525 3.8087074,13.16302 3.80870756,13.163021 H 16.079738 32.313216 Z M 65.253839,7.495389 C 60.561814,6.5926096 56.551239,4.1096274 53.85723,0.43965304 52.80739,-0.99051505 52.804847,-1.0362033 53.615875,-3.8993705 c 0.840086,-2.9657647 0.08985,-6.6583765 -1.875846,-9.2327695 -0.891916,-1.168107 -0.915903,-1.257621 -0.627287,-2.340891 1.104926,-4.147132 4.974994,-8.772397 8.985003,-10.738312 3.066529,-1.503373 5.13801,-2.000917 8.198802,-1.969246 5.151969,0.05331 9.077296,1.708599 12.738071,5.371589 1.840391,1.841505 2.497052,2.722975 3.362462,4.513606 1.348674,2.790555 1.883503,5.038733 1.882629,7.913732 -7.93e-4,3.0251453 -0.552153,5.4329117 -1.864569,8.1443563 -1.422569,2.93902323 -4.707376,6.340218 -7.53156,7.7984108 -3.590522,1.8538771 -8.126565,2.6083232 -11.629741,1.9342839 z m 5.177086,-5.5577816 c 0.0825,-0.7187247 0.297527,-1.3559472 0.477832,-1.4160473 0.994601,-0.33153348 2.626416,-1.9331516 3.29306,-3.2321234 0.650981,-1.2684521 0.734753,-1.6923384 0.658355,-3.3312416 -0.07155,-1.5349854 -0.233633,-2.1146874 -0.887688,-3.1749998 -1.013481,-1.6429913 -3.040385,-2.9140333 -5.046686,-3.1647053 -1.868474,-0.233449 -2.745917,-0.916569 -2.745917,-2.137791 0,-1.229156 0.343294,-1.806588 1.312804,-2.208172 1.081873,-0.448128 2.196229,0.01826 2.902082,1.214591 0.522801,0.886079 0.55435,0.897887 2.399078,0.897887 2.088253,0 2.292765,-0.172275 2.007793,-1.691307 -0.240694,-1.28302 -1.492419,-3.015625 -2.825425,-3.910882 -1.419905,-0.953619 -1.553879,-1.159997 -1.558948,-2.401456 l -0.0041,-0.992188 h -2.116667 -2.116666 v 1.058333 c 0,1.134129 -0.184034,1.375209 -2.014778,2.639346 -2.156307,1.488932 -3.155956,5.210754 -2.086827,7.769534 0.902105,2.1590451 3.591128,4.1345644 5.636098,4.140618 1.037045,0.00307 2.304486,0.6056974 2.534486,1.2050633 0.841423,2.1927104 -1.382416,4.1681027 -3.233057,2.8718641 -0.332608,-0.2329683 -0.713341,-0.7092183 -0.846074,-1.0583333 -0.227045,-0.5971752 -0.367054,-0.6347592 -2.36455,-0.6347592 h -2.123215 v 0.7463075 c 0,1.6820832 2.319568,4.83347954 3.960175,5.38034681 0.157099,0.0523663 0.35251,0.57052629 0.434245,1.15146659 0.252671,1.7958646 0.187076,1.7480676 2.282483,1.6632343 l 1.922055,-0.077814 z"
           id="path362" /><path
           style="fill:#37c871;stroke-width:0.264583"
           d="m 36.281966,16.406296 c 0,-0.435824 13.375758,-13.5357863 13.635013,-13.3538694 0.150455,0.105574 0.745767,0.778375 1.322916,1.4951127 0.577149,0.7167377 1.928035,2.0027555 3.00197,2.8578173 11.191534,8.9106394 27.752436,5.2817364 34.173008,-7.48814714 1.535901,-3.05475466 2.12956,-5.41442776 2.295877,-9.12563486 0.29111,-6.4959096 -1.700538,-11.8695646 -6.103808,-16.4686576 -4.393438,-4.588822 -9.823029,-6.949109 -16.045811,-6.97524 -9.24986,-0.03884 -17.424103,5.246256 -20.940844,13.539412 -0.725906,1.711819 -0.733944,1.719516 -1.734325,1.660427 -5.034605,-0.297387 -6.6333,-0.02201 -9.156726,1.577228 -0.699884,0.443558 -4.856385,4.510215 -9.236667,9.0370104 -4.380283,4.5267983 -8.093898,8.2305415 -8.252481,8.2305415 -0.301517,0 -0.582353,-36.6942489 -0.290076,-37.9015609 l 0.144118,-0.595312 h 44.402543 c 24.4214,0 46.565327,0.07834 49.208717,0.17409 l 4.80617,0.174091 -0.0674,26.61497 -0.0674,26.614971 -40.547391,0.06699 c -22.301066,0.03685 -40.547393,-0.02356 -40.547393,-0.134236 z m 68.894054,-4.287009 c 0.78599,-0.298831 1.48511,-1.525119 1.48511,-2.6049341 0,-1.6345084 2.19665,-3.7564322 3.88872,-3.7564322 1.19122,0 2.28431,-0.5917724 2.67435,-1.4478158 0.47522,-1.0429954 0.42833,-7.3900741 -0.0576,-7.7933388 -0.25871,-0.214712 -0.9913,-0.2541508 -2.38125,-0.1281959 l -2.00758,0.1819222 v 1.9262407 c 0,1.0594339 -0.0723,2.11465039 -0.16067,2.34492519 -0.0884,0.23027741 -0.67978,0.64831381 -1.31424,0.92896791 -1.63789,0.7245165 -3.69395,2.7506003 -4.48223,4.4168746 l -0.67295,1.4225031 h -2.056 c -1.24633,0 -2.181032,0.1250341 -2.373497,0.3175 -0.334902,0.3349016 -0.454581,3.9551421 -0.141111,4.2686101 0.27408,0.274079 6.850858,0.207587 7.598918,-0.07683 z m 8.24908,-29.486314 c 0.0877,-0.349448 0.11974,-2.126157 0.0712,-3.948239 -0.0821,-3.080073 -0.13335,-3.360801 -0.72971,-3.994846 -0.45393,-0.48261 -0.91799,-0.683664 -1.5875,-0.687776 -1.30674,-0.008 -3.00295,-0.833385 -3.68701,-1.794065 -0.31457,-0.441762 -0.69227,-1.437725 -0.83935,-2.213251 -0.16928,-0.892598 -0.51018,-1.652931 -0.92896,-2.071899 -0.62823,-0.628512 -0.83853,-0.666424 -4.17483,-0.752681 -4.237957,-0.109564 -4.205947,-0.130254 -4.094148,2.646045 l 0.07823,1.942703 2.321997,0.132292 2.321991,0.132291 0.6379,1.379355 c 0.79807,1.725705 2.53429,3.484303 4.25001,4.304805 0.72381,0.346141 1.40349,0.756624 1.51041,0.912178 0.10691,0.155556 0.19621,1.195641 0.19843,2.311302 0.003,1.371978 0.11109,2.071661 0.33478,2.161923 0.18191,0.0734 1.19167,0.142851 2.24392,0.15434 1.80696,0.01974 1.92204,-0.01439 2.07266,-0.614477 z m -85.609801,-4.122147 0.132292,-2.243968 1.509321,-0.79874 c 1.960065,-1.037273 3.152058,-2.218928 4.175704,-4.139486 l 0.828297,-1.554043 h 2.068755 c 1.455688,0 2.160344,-0.11036 2.377819,-0.372401 0.191624,-0.230894 0.279339,-1.110604 0.230835,-2.315104 l -0.07823,-1.942703 -3.72574,-0.07314 c -3.428929,-0.06731 -3.781205,-0.02951 -4.421934,0.474485 -0.433321,0.340853 -0.758269,0.917927 -0.860599,1.528347 -0.418047,2.493688 -1.583899,4.090379 -3.233558,4.428514 -3.444827,0.706096 -3.500876,0.793038 -3.500876,5.430525 0,1.980658 0.08394,3.68514 0.186542,3.78774 0.102597,0.102598 1.084863,0.152207 2.182812,0.110242 l 1.996271,-0.0763 z m 43.259373,-20.65493 c 0.470509,-0.216024 40.346478,-5.543806 41.492808,-5.543806 0.41504,0 0.45398,0.286589 0.38645,2.844271 l -0.0751,2.84427 -21.166669,0.04911 c -13.021606,0.03021 -20.963039,-0.04438 -20.637499,-0.193845 z m -9.260416,-4.370686 c 0.145521,-0.05941 10.503958,-2.730188 23.018749,-5.935065 12.514791,-3.204876 22.906755,-5.883012 23.093245,-5.951412 0.26609,-0.09759 0.32305,0.541744 0.26459,2.969766 l -0.0745,3.094132 -22.489585,2.971832 c -20.17881,2.66648 -24.681523,3.205529 -23.812499,2.850747 z"
           id="path360"
           sodipodi:nodetypes="sssssssssssssscsscccssssssssscsssscsssssscssssssscccssscssssccsscssscsssssssccssscssssssscss" /><path
           style="fill:#000000;stroke-width:0.264583"
           d="m -7.2033554,58.81951 -0.7000935,-0.648824 v -7.639431 -7.639428 l 0.6123651,-0.575289 c 0.3368008,-0.316407 0.8580035,-0.575286 1.1582283,-0.575286 0.3002246,0 0.6689061,-0.148828 0.8192923,-0.330729 0.1954247,-0.236379 -0.8143242,-4.16941 -3.5394782,-13.786471 L -12.665949,14.168307 V -0.51588168 c 0,-15.43814832 0.06269,-16.38167332 1.243668,-18.71758932 0.223976,-0.443016 6.8408172,-11.962836 14.7040909,-25.599601 8.9294761,-15.485811 14.6851001,-25.19816 15.3309961,-25.870345 4.422637,-4.602648 11.554438,-4.588284 15.961586,0.03215 2.049889,2.149094 2.820289,3.967912 2.971284,7.014822 0.09079,1.83212 0.0087,2.764101 -0.337862,3.836459 -0.251783,0.779049 -2.349039,4.702609 -4.660569,8.719022 -3.664889,6.367953 -4.568449,8.175555 -4.08669,8.175555 0.06385,0 8.48752,-2.149785 18.719269,-4.777301 40.752494,-10.465248 58.679466,-15.063636 61.270076,-15.716189 2.48171,-0.625123 2.77996,-0.650144 3.47366,-0.291417 0.41737,0.215831 0.83282,0.585155 0.92321,0.82072 0.0904,0.235565 0.16436,2.432887 0.16436,4.882937 0,2.450051 0.0723,4.642969 0.1606,4.873152 0.11827,0.308207 0.52728,0.418515 1.55182,0.418515 1.00683,0 1.58383,0.151514 2.08835,0.54837 l 0.69714,0.54837 v 4.589364 c 0,2.524152 0.0723,4.777698 0.1606,5.00788 0.11322,0.295042 0.50865,0.418515 1.34031,0.418515 1.3287,0 2.12292,0.328602 2.79269,1.155446 0.42699,0.527122 0.45752,2.524599 0.46302,30.284175 l 0.006,29.719832 -0.77339,0.773396 -0.7734,0.773398 H 78.386681 c -27.942142,0 -42.393675,0.08997 -42.501604,0.264605 -0.08994,0.145531 0.944827,1.425453 2.299491,2.84427 4.091443,4.285208 5.241147,7.241937 5.241147,13.47883 v 3.538474 l 0.919806,0.542697 c 0.638691,0.376838 1.002122,0.839073 1.189148,1.512432 0.349623,1.258766 0.350705,13.112231 0.0013,14.370134 -0.538321,1.938084 1.308545,1.81314 -26.800861,1.81314 H -6.5032515 L -7.2033448,58.81951 Z M 41.176757,50.472502 V 46.106877 H 18.819466 -3.5378241 l -0.073334,4.089932 c -0.040334,2.249463 -0.014044,4.244437 0.058419,4.433276 0.1068271,0.278386 4.35038003,0.330544 22.4306251,0.275693 l 22.298871,-0.06765 z M 38.884418,37.170247 c -0.08865,-4.293811 -0.09157,-4.311827 -0.997866,-6.151562 -0.755959,-1.534573 -1.685769,-2.636208 -5.52415,-6.545008 -4.577083,-4.661051 -4.613897,-4.7079 -4.457361,-5.672516 0.138173,-0.851461 1.440457,-2.260295 10.452242,-11.307423 9.590375,-9.6279885 10.326065,-10.4322477 10.757405,-11.7600195 1.450874,-4.4661426 -1.708221,-8.7612135 -6.444012,-8.7612135 -2.809837,0 -3.221854,0.341347 -14.371218,11.9062493 C 22.757919,4.626827 17.970974,9.4744035 17.661803,9.6511478 16.493126,10.31925 15.271134,9.9568712 14.62935,8.7518767 14.401827,8.3246858 14.32155,1.8951365 14.32155,-15.900216 v -24.074177 l 0.684977,-0.814049 0.68498,-0.814052 2.953041,-0.004 c 1.624174,-0.0021 3.093151,-0.09316 3.264392,-0.202075 0.171241,-0.108911 2.703015,-4.332073 5.626163,-9.384802 5.826834,-10.071811 6.146469,-10.831263 5.59527,-13.294287 -1.144566,-5.11446 -7.758157,-7.011943 -11.311204,-3.24526 -0.634116,0.672244 -26.5501848,45.207255 -29.2447011,50.255042 l -0.6102085,1.143137 -0.0743,15.2392668 -0.0743,15.2392632 3.7160817,13.071152 c 2.043845,7.189131 3.83089899,13.33904 3.97123133,13.666461 l 0.25514934,0.595313 H 19.365725 38.973328 Z m 78.559742,-47.311673 0.0674,-26.61497 -4.80617,-0.174091 c -2.64339,-0.09575 -24.787317,-0.17409 -49.208717,-0.17409 H 19.09413 l -0.144118,0.595312 c -0.292277,1.207312 -0.01143,37.9015609 0.290076,37.9015609 0.158583,0 3.872198,-3.7037432 8.252481,-8.2305415 4.380282,-4.5267954 8.536783,-8.5934524 9.236667,-9.0370104 2.523426,-1.599242 4.122121,-1.874615 9.156726,-1.577228 1.000381,0.05909 1.008419,0.05139 1.734325,-1.660427 2.732598,-6.443991 8.580101,-11.324799 15.569445,-12.995539 3.161869,-0.755814 7.579222,-0.747962 10.530773,0.01873 8.467926,2.199592 14.972286,9.006313 16.681878,17.457348 0.591315,2.923053 0.41121,7.7632978 -0.392628,10.5517731 C 85.547687,11.398072 66.81283,17.414306 54.241865,7.4053699 53.16793,6.550308 51.817044,5.2642902 51.239895,4.5475525 50.662746,3.8308148 50.067434,3.1580138 49.916979,3.0524398 49.657724,2.8705097 36.281966,15.970472 36.281966,16.406296 c 0,0.110675 18.246327,0.171082 40.547393,0.134236 l 40.547391,-0.06699 z m -19.867058,22.33754 c -0.31347,-0.313468 -0.193791,-3.9337085 0.141111,-4.2686101 0.192465,-0.1924659 1.127167,-0.3175 2.373497,-0.3175 h 2.056 l 0.67295,-1.4225031 c 0.78828,-1.6662743 2.84434,-3.6923581 4.48223,-4.4168746 0.63446,-0.2806541 1.22588,-0.6986905 1.31424,-0.92896791 0.0884,-0.2302748 0.16067,-1.28549129 0.16067,-2.34492519 v -1.9262407 l 2.00758,-0.1819222 c 1.38995,-0.1259549 2.12254,-0.086516 2.38125,0.1281959 0.4859,0.4032647 0.53279,6.7503434 0.0576,7.7933388 -0.39004,0.8560434 -1.48313,1.4478158 -2.67435,1.4478158 -1.69207,0 -3.88872,2.1219238 -3.88872,3.7564322 0,1.0798151 -0.69912,2.3061031 -1.48511,2.6049341 -0.74806,0.284414 -7.324838,0.350906 -7.598918,0.07683 z M 109.10852,-16.90689 c -0.22369,-0.09026 -0.33204,-0.789945 -0.33478,-2.161923 -0.002,-1.115661 -0.0915,-2.155746 -0.19843,-2.311302 -0.10692,-0.155554 -0.7866,-0.566037 -1.51041,-0.912178 -1.71572,-0.820502 -3.45194,-2.5791 -4.25001,-4.304805 l -0.6379,-1.379355 -2.321989,-0.132291 -2.321997,-0.132292 -0.07823,-1.942703 c -0.111799,-2.776299 -0.143809,-2.755609 4.094146,-2.646045 3.3363,0.08626 3.5466,0.124169 4.17483,0.752681 0.41878,0.418968 0.75968,1.179301 0.92896,2.071899 0.14708,0.775526 0.52478,1.771489 0.83935,2.213251 0.68406,0.96068 2.38027,1.786038 3.68701,1.794065 0.66951,0.0041 1.13357,0.205166 1.5875,0.687776 0.59636,0.634045 0.64764,0.914773 0.72971,3.994846 0.12571,4.717489 0.18648,4.588158 -2.14384,4.562716 -1.05225,-0.01148 -2.06201,-0.08094 -2.24392,-0.15434 z m -85.604595,-2.372257 c -0.102598,-0.1026 -0.186542,-1.807082 -0.186542,-3.78774 0,-4.637487 0.05605,-4.724429 3.500876,-5.430525 1.649659,-0.338135 2.815511,-1.934826 3.233558,-4.428514 0.10233,-0.61042 0.427278,-1.187494 0.860599,-1.528347 0.640729,-0.503996 0.993005,-0.541797 4.421934,-0.474485 l 3.72574,0.07314 0.07823,1.942703 c 0.0485,1.2045 -0.03921,2.08421 -0.230835,2.315104 -0.217475,0.262041 -0.922131,0.372401 -2.377819,0.372401 h -2.068755 l -0.828297,1.554043 c -1.023646,1.920558 -2.215639,3.102213 -4.175704,4.139486 l -1.509321,0.79874 -0.132292,2.243968 -0.132291,2.243971 -1.996271,0.0763 c -1.097949,0.04196 -2.080215,-0.0076 -2.182812,-0.110242 z M 73.047122,7.0509102 c 3.221027,-0.8612001 5.407004,-2.1585977 7.987496,-4.7406504 1.849006,-1.85012272 2.496462,-2.72109926 3.380522,-4.5475655 1.312416,-2.7114446 1.863649,-5.119211 1.864569,-8.1443563 7.94e-4,-2.874999 -0.533955,-5.123177 -1.882629,-7.913732 -0.86541,-1.790631 -1.522071,-2.672101 -3.362462,-4.513606 -3.660775,-3.66299 -7.586102,-5.318281 -12.738071,-5.371589 -3.060792,-0.03167 -5.132273,0.465873 -8.198802,1.969246 -4.010009,1.965915 -7.880077,6.59118 -8.985003,10.738312 -0.288616,1.08327 -0.264629,1.172784 0.627287,2.340891 1.965693,2.574393 2.715932,6.2670048 1.875846,9.2327695 -0.811028,2.8631672 -0.808485,2.90885545 0.241355,4.33902354 C 58.260669,6.438339 65.72285,9.0091919 73.047122,7.0509102 Z M 66.330902,3.0576097 C 66.272654,2.8692926 66.158119,2.2398991 66.076384,1.6589588 65.994649,1.0780185 65.799238,0.55985854 65.642139,0.50749221 64.001532,-0.03937506 61.681964,-3.1907714 61.681964,-4.8728546 v -0.7463075 h 2.123215 c 1.997496,0 2.137505,0.037584 2.36455,0.6347592 0.132733,0.349115 0.513466,0.825365 0.846074,1.0583333 1.850641,1.2962386 4.07448,-0.6791537 3.233057,-2.8718641 -0.23,-0.5993659 -1.497441,-1.2019915 -2.534486,-1.2050633 -2.04497,-0.00606 -4.733993,-1.9815729 -5.636098,-4.140618 -1.069129,-2.55878 -0.06948,-6.280602 2.086827,-7.769534 1.830744,-1.264137 2.014778,-1.505217 2.014778,-2.639346 v -1.058333 h 2.116666 2.116667 l 0.004,0.992188 c 0.0051,1.241459 0.139044,1.447837 1.558949,2.401456 1.333005,0.895257 2.58473,2.627862 2.825424,3.910882 0.284972,1.519032 0.08046,1.691307 -2.007793,1.691307 -1.844728,0 -1.876277,-0.0118 -2.399077,-0.897887 -0.705853,-1.196332 -1.820209,-1.662719 -2.902083,-1.214591 -0.96951,0.401584 -1.312804,0.979016 -1.312804,2.208172 0,1.221222 0.877443,1.904342 2.745917,2.137791 2.006301,0.250672 4.033205,1.521714 5.046686,3.1647053 0.654056,1.0603124 0.816134,1.6400144 0.887688,3.1749998 0.0764,1.6389032 -0.0074,2.0627895 -0.658355,3.3312416 -0.666644,1.2989718 -2.298459,2.90058992 -3.293059,3.2321234 -0.180306,0.0601001 -0.395333,0.6973226 -0.477833,1.4160473 l -0.15,1.3067717 -1.922055,0.077814 C 66.962545,3.3787239 66.407843,3.3063445 66.330902,3.0576097 Z M 112.95393,-44.843639 c 0.0675,-2.557682 0.0286,-2.844271 -0.38645,-2.844271 -1.14633,0 -41.022299,5.327782 -41.492808,5.543806 -0.32554,0.149466 7.615893,0.224057 20.637499,0.193845 l 21.166669,-0.04911 z m -27.327175,-4.521895 22.489585,-2.971832 0.0745,-3.094132 c 0.0585,-2.428022 0.002,-3.067357 -0.26459,-2.969766 -0.18649,0.0684 -10.578454,2.746536 -23.093245,5.951412 -12.514791,3.204877 -22.873228,5.875655 -23.018749,5.935065 -0.869024,0.354782 3.633689,-0.184267 23.812499,-2.850747 z"
           id="path358" /><path
           style="fill:#ff6600;stroke-width:0.264583"
           d="m -3.5527387,54.630085 c -0.072464,-0.188839 -0.098753,-2.183813 -0.058419,-4.433276 l 0.073334,-4.089932 H 18.819466 41.176757 v 4.365625 4.365625 l -22.298871,0.06765 c -18.08024467,0.05485 -22.3237976,0.0027 -22.4306247,-0.275692 z"
           id="path918"
           sodipodi:nodetypes="sscccccss" /></g></g></g></svg>
